# xmcd
#
# Track frame offsets: 
#        150
#        4403
#        33874
#        59648
#        84185
#        103457
#        128920
#        153611
#        183741
#        203484
#        226794
#        253944
#
# Disc length: 3719 seconds
#
# Revision: 1
# Processed by: cddbd v1.5.1PL2 Copyright (c) Steve Scherf et al.
# Submitted via: ExactAudioCopy v0.90b4
#
DISCID=a20e850c
DTITLE=Only Child - Solitaire
DYEAR=2003
DGENRE=Hip-Hop
TTITLE0=Introducing...
TTITLE1=U Bring Me Vibes ( Feat Amp Fiddler)
TTITLE2=Addicted (Feat Veba)
TTITLE3=Show Me Love (Feat Nico)
TTITLE4=Memories (Feat Kriminul)
TTITLE5=I Love You So
TTITLE6=Loves Reprise (Feat Nico)
TTITLE7=Fall Down (Feat Kathy Brown)
TTITLE8=Find A Way (Feat Amp Fiddler)
TTITLE9=Tonite
TTITLE10=The U In Me
TTITLE11=The Only Child
EXTD=YEAR: 2003
EXTT0=
EXTT1=
EXTT2=
EXTT3=
EXTT4=
EXTT5=
EXTT6=
EXTT7=
EXTT8=
EXTT9=
EXTT10=
EXTT11=
PLAYORDER=
